<svg width="60" height="60" viewBox="0 0 60 60" fill="none" xmlns="http://www.w3.org/2000/svg">
<rect width="60" height="60" rx="30" fill="#F5EEFC"/>
<path fill-rule="evenodd" clip-rule="evenodd" d="M40.6208 14.1378C40.7367 14.2202 40.8324 14.3353 40.8987 14.4722C40.9651 14.609 41 14.7631 41 14.9198V42.5198C41 42.7638 40.9157 42.9978 40.7657 43.1703C40.6157 43.3429 40.4122 43.4398 40.2 43.4398H35.4C35.1878 43.4398 34.9844 43.3429 34.8343 43.1703C34.6843 42.9978 34.6 42.7638 34.6 42.5198V39.7598H33V42.5198C33 42.7638 32.9157 42.9978 32.7657 43.1703C32.6157 43.3429 32.4122 43.4398 32.2 43.4398H17.8C17.5878 43.4398 17.3844 43.3429 17.2343 43.1703C17.0843 42.9978 17 42.7638 17 42.5198V32.3998C17.0001 32.2068 17.0531 32.0187 17.1513 31.8622C17.2495 31.7057 17.388 31.5886 17.5472 31.5276L26.6 28.0574V22.2798C26.6 22.1091 26.6413 21.9417 26.7193 21.7965C26.7973 21.6512 26.9089 21.5338 27.0416 21.4573L39.8416 14.0973C39.9637 14.027 40.0994 13.9939 40.2358 14.0009C40.3722 14.008 40.5047 14.0551 40.6208 14.1378ZM26.6 29.9967L18.6 33.0622V41.5998H26.6V29.9967ZM28.2 41.5998H31.4V38.8398C31.4 38.5958 31.4843 38.3618 31.6343 38.1892C31.7844 38.0167 31.9878 37.9198 32.2 37.9198H35.4C35.6122 37.9198 35.8157 38.0167 35.9657 38.1892C36.1157 38.3618 36.2 38.5958 36.2 38.8398V41.5998H39.4V16.4083L28.2 22.8483V41.5998Z" fill="#7E39C7"/>
<path d="M20.2 34.24H21.8V36.08H20.2V34.24ZM23.4 34.24H25V36.08H23.4V34.24ZM20.2 37.92H21.8V39.76H20.2V37.92ZM23.4 37.92H25V39.76H23.4V37.92ZM29.8 30.56H31.4V32.4H29.8V30.56ZM33 30.56H34.6V32.4H33V30.56ZM29.8 34.24H31.4V36.08H29.8V34.24ZM33 34.24H34.6V36.08H33V34.24ZM36.2 30.56H37.8V32.4H36.2V30.56ZM36.2 34.24H37.8V36.08H36.2V34.24ZM29.8 26.88H31.4V28.72H29.8V26.88ZM33 26.88H34.6V28.72H33V26.88ZM36.2 26.88H37.8V28.72H36.2V26.88ZM29.8 23.2H31.4V25.04H29.8V23.2ZM33 23.2H34.6V25.04H33V23.2ZM36.2 23.2H37.8V25.04H36.2V23.2ZM36.2 19.52H37.8V21.36H36.2V19.52Z" fill="#7E39C7"/>
</svg>
