<svg width="60" height="60" viewBox="0 0 60 60" fill="none" xmlns="http://www.w3.org/2000/svg">
<rect width="60" height="60" rx="30" fill="#F5EEFC"/>
<path d="M41.25 20.625H18.75C18.2527 20.625 17.7758 20.8225 17.4242 21.1742C17.0725 21.5258 16.875 22.0027 16.875 22.5V37.5C16.875 37.9973 17.0725 38.4742 17.4242 38.8258C17.7758 39.1775 18.2527 39.375 18.75 39.375H41.25C41.7473 39.375 42.2242 39.1775 42.5758 38.8258C42.9275 38.4742 43.125 37.9973 43.125 37.5V22.5C43.125 22.0027 42.9275 21.5258 42.5758 21.1742C42.2242 20.8225 41.7473 20.625 41.25 20.625ZM39.1875 22.5L30 28.8562L20.8125 22.5H39.1875ZM18.75 37.5V23.3531L29.4656 30.7687C29.6226 30.8776 29.809 30.936 30 30.936C30.191 30.936 30.3774 30.8776 30.5344 30.7687L41.25 23.3531V37.5H18.75Z" fill="#7E39C7"/>
</svg>
