<svg width="60" height="60" viewBox="0 0 60 60" fill="none" xmlns="http://www.w3.org/2000/svg">
<rect width="60" height="60" rx="30" fill="#F5EEFC"/>
<path d="M29.9995 21.9576C29.1989 21.9576 28.4162 22.195 27.7506 22.6398C27.0849 23.0846 26.566 23.7168 26.2597 24.4565C25.9533 25.1961 25.8731 26.01 26.0293 26.7953C26.1855 27.5805 26.571 28.3018 27.1371 28.8679C27.7033 29.434 28.4245 29.8196 29.2098 29.9757C29.995 30.1319 30.8089 30.0518 31.5486 29.7454C32.2883 29.439 32.9205 28.9202 33.3653 28.2545C33.8101 27.5888 34.0475 26.8062 34.0475 26.0056C34.0462 24.9323 33.6194 23.9034 32.8605 23.1446C32.1016 22.3857 31.0727 21.9588 29.9995 21.9576ZM29.9995 28.0295C29.5992 28.0295 29.2079 27.9108 28.875 27.6884C28.5422 27.466 28.2828 27.1499 28.1296 26.7801C27.9764 26.4103 27.9363 26.0033 28.0144 25.6107C28.0925 25.2181 28.2853 24.8574 28.5683 24.5744C28.8514 24.2913 29.212 24.0986 29.6046 24.0205C29.9973 23.9424 30.4042 23.9824 30.774 24.1356C31.1439 24.2888 31.46 24.5482 31.6824 24.8811C31.9048 25.2139 32.0235 25.6052 32.0235 26.0056C32.0229 26.5422 31.8094 27.0566 31.43 27.436C31.0505 27.8155 30.5361 28.0289 29.9995 28.0295Z" fill="#7E39C7"/>
<path d="M37.7781 18.221C35.8548 16.2982 33.2875 15.156 30.5716 15.0148C27.8558 14.8737 25.1839 15.7435 23.0716 17.4564C20.9593 19.1694 19.5565 21.6041 19.1337 24.2906C18.711 26.9771 19.2984 29.7249 20.7825 32.0038L28.4298 43.7437C28.6 44.0049 28.8327 44.2196 29.1068 44.3681C29.3809 44.5167 29.6878 44.5945 29.9995 44.5945C30.3113 44.5945 30.6182 44.5167 30.8923 44.3681C31.1664 44.2196 31.399 44.0049 31.5692 43.7437L39.2168 32.0038C40.5939 29.8898 41.2025 27.3667 40.9405 24.8574C40.6786 22.348 39.5621 20.005 37.7781 18.221ZM37.5209 30.899L29.9996 42.4452L22.4781 30.899C20.1758 27.3647 20.6696 22.6349 23.6522 19.6521C24.4858 18.8186 25.4753 18.1574 26.5644 17.7062C27.6535 17.2551 28.8207 17.0229 29.9996 17.0229C31.1784 17.0229 32.3457 17.2551 33.4347 17.7062C34.5238 18.1574 35.5134 18.8186 36.3469 19.6521C39.3295 22.6349 39.8232 27.3647 37.5209 30.899Z" fill="#7E39C7"/>
</svg>
